<?xml version="1.0" encoding="utf-8"?>
<!-- Generator: Adobe Illustrator 27.0.0, SVG Export Plug-In . SVG Version: 6.00 Build 0)  -->
<svg version="1.1" id="Layer_1" xmlns="http://www.w3.org/2000/svg" xmlns:xlink="http://www.w3.org/1999/xlink" x="0px" y="0px"
	 viewBox="0 0 432 118" style="enable-background:new 0 0 432 118;" xml:space="preserve">
<style type="text/css">
	.st0{fill:#FFFFFF;}
</style>
<g>
	<path class="st0" d="M44.42,42.85c-8.2,0-13.93,3.43-18.43,11.1v-9.5H5.05v65.7h20.95V82.63c0-14.08,2.56-21.23,16.56-21.23
		c2.59,0,5.26,0.42,8.39,1.31l0.62,0.18V43.64l-0.35-0.1C49.6,43.08,47.38,42.85,44.42,42.85z"/>
	<path class="st0" d="M106.17,80.4c-1.31,6.35-4.3,10.4-9.4,12.75c-6.56,3.01-13.38,1.3-17.94-4.46l42-19.31l-2.82-6.13
		c-8.74-19.01-25.39-26.24-42.42-18.42c-19.19,8.82-27.06,28.39-18.73,46.53c8.34,18.13,28.32,24.89,47.5,16.08
		c9.79-4.5,17.36-13.45,19.74-23.35l0.12-0.49l-17.95-3.68L106.17,80.4z M80.32,59.56c3-1.38,6.26-1.52,9.19-0.4
		c2.74,1.04,4.93,3.07,6.21,5.74L72.69,75.49C70.96,70.01,72.63,63.1,80.32,59.56z"/>
	<rect x="128.41" y="16.23" class="st0" width="20.95" height="93.93"/>
	<rect x="157.16" y="44.45" class="st0" width="20.95" height="65.7"/>
	<path class="st0" d="M220.79,42.85c-21.12,0-36.44,14.49-36.44,34.45c0,19.96,15.33,34.45,36.44,34.45
		c21.12,0,36.45-14.49,36.45-34.45C257.24,57.34,241.91,42.85,220.79,42.85z M220.79,93.2c-9.41,0-15.5-6.24-15.5-15.9
		c0-9.66,6.08-15.9,15.5-15.9c9.42,0,15.5,6.24,15.5,15.9C236.29,86.96,230.21,93.2,220.79,93.2z"/>
	<path class="st0" d="M302.03,42.85c-9.38,0-15.75,4.91-18.7,9.54v-7.94h-20.15v65.7h20.95V77.44c0-7.92,1.36-16.03,11.5-16.03
		c9.91,0,9.91,9.57,9.91,16.56v32.18h20.95V73.97C326.48,57.81,323.52,42.85,302.03,42.85z"/>
	<path class="st0" d="M167.64,12.99c-6.67,0-12.07,5.41-12.07,12.07c0,6.67,5.4,12.07,12.07,12.07c6.67,0,12.07-5.4,12.07-12.07
		C179.71,18.39,174.3,12.99,167.64,12.99z"/>
	<path class="st0" d="M417.62,24.14c-13-18.55-38.56-23.05-57.11-10.06c-13.06,9.15-19.15,24.54-17.07,39.32
		c1.93-2.44,4.2-4.59,6.79-6.41c5.45-3.82,11.83-5.83,18.46-5.83c10.51,0,20.39,5.13,26.41,13.73c6.41,9.15,7.54,21.05,3.19,31.21
		c3.22-1.19,6.35-2.8,9.29-4.86C426.11,68.25,430.61,42.68,417.62,24.14z"/>
	<path class="st0" d="M367.78,89.03c2.56,3.67,3.7,8.3,2.9,13c5.05-0.34,10.07-1.99,14.52-5.11c2.21-1.55,4.13-3.36,5.76-5.35
		c-2.28,0.36-4.59,0.56-6.9,0.56C378.41,92.13,372.9,91.04,367.78,89.03z"/>
	<path class="st0" d="M353.38,81.5c0.66,0,1.32,0.05,1.97,0.12c-2.9-2.45-5.51-5.27-7.74-8.44c-2.33-3.32-4.17-6.9-5.5-10.67
		c-2.93,7.19-2.9,15.43,0.44,22.75C345.65,82.84,349.46,81.5,353.38,81.5z"/>
	<path class="st0" d="M392.25,56.89c-0.32-0.46-0.66-0.9-1-1.34c-0.11-0.14-0.22-0.27-0.33-0.4c-0.24-0.3-0.49-0.59-0.74-0.87
		c-0.13-0.15-0.26-0.29-0.39-0.43c-0.25-0.27-0.5-0.53-0.76-0.79c-0.13-0.13-0.26-0.26-0.39-0.39c-0.31-0.3-0.63-0.59-0.95-0.87
		c-0.08-0.07-0.16-0.15-0.25-0.22c-0.41-0.35-0.82-0.68-1.24-1.01c-0.11-0.08-0.22-0.16-0.33-0.24c-0.32-0.24-0.64-0.47-0.97-0.69
		c-0.15-0.1-0.3-0.2-0.46-0.3c-0.3-0.2-0.6-0.39-0.91-0.57c-0.16-0.09-0.31-0.19-0.47-0.28c-0.33-0.19-0.67-0.37-1-0.55
		c-0.13-0.07-0.26-0.14-0.39-0.21c-0.47-0.24-0.94-0.46-1.42-0.67c-0.06-0.03-0.13-0.05-0.2-0.08c-0.42-0.18-0.83-0.35-1.26-0.5
		c-0.16-0.06-0.32-0.11-0.48-0.17c-0.34-0.12-0.67-0.23-1.01-0.34c-0.18-0.06-0.35-0.11-0.53-0.16c-0.34-0.1-0.69-0.19-1.04-0.28
		c-0.16-0.04-0.32-0.08-0.49-0.12c-0.45-0.11-0.91-0.2-1.37-0.28c-0.05-0.01-0.11-0.02-0.16-0.03c-0.51-0.09-1.03-0.17-1.54-0.23
		c-0.15-0.02-0.31-0.03-0.46-0.05c-0.37-0.04-0.73-0.07-1.1-0.1c-0.18-0.01-0.37-0.02-0.55-0.03c-0.35-0.02-0.7-0.03-1.05-0.03
		c-0.17,0-0.34,0-0.51,0c-0.62,0-1.24,0.03-1.87,0.07c-0.11,0.01-0.22,0.02-0.33,0.03c-0.55,0.05-1.1,0.11-1.65,0.18
		c-0.13,0.02-0.26,0.03-0.39,0.05c-0.62,0.1-1.23,0.21-1.85,0.35c-0.13,0.03-0.26,0.06-0.39,0.09c-0.54,0.13-1.08,0.27-1.62,0.44
		c-0.1,0.03-0.21,0.06-0.31,0.09c-0.61,0.19-1.21,0.4-1.8,0.64c-0.14,0.05-0.28,0.11-0.41,0.17c-0.55,0.22-1.1,0.46-1.64,0.72
		c-0.06,0.03-0.13,0.06-0.19,0.09c-0.59,0.29-1.16,0.6-1.73,0.93c-0.14,0.08-0.27,0.16-0.41,0.24c-0.58,0.35-1.15,0.71-1.71,1.1
		c-2.02,1.42-3.81,3.05-5.35,4.84c-0.92,1.08-1.76,2.21-2.5,3.39c1.2,4.58,3.21,9.02,6.09,13.12c0.57,0.81,1.17,1.59,1.79,2.35
		c0.19,0.24,0.4,0.47,0.59,0.7c0.44,0.52,0.89,1.03,1.35,1.52c0.23,0.25,0.47,0.49,0.7,0.73c0.47,0.48,0.95,0.94,1.44,1.39
		c0.22,0.2,0.44,0.41,0.66,0.61c0.71,0.63,1.44,1.23,2.18,1.8c0.02,0.02,0.04,0.03,0.06,0.04c0.73,0.55,1.48,1.08,2.24,1.58
		c0.25,0.17,0.51,0.32,0.76,0.48c0.55,0.34,1.1,0.67,1.66,0.99c0.29,0.16,0.58,0.32,0.87,0.48c0.57,0.3,1.14,0.59,1.72,0.86
		c0.27,0.13,0.53,0.26,0.8,0.38c0.84,0.37,1.69,0.73,2.55,1.05c0.04,0.01,0.07,0.02,0.11,0.04c0.83,0.3,1.67,0.57,2.52,0.82
		c0.28,0.08,0.57,0.15,0.86,0.23c0.62,0.17,1.23,0.32,1.86,0.46c0.32,0.07,0.64,0.14,0.95,0.2c0.63,0.12,1.27,0.23,1.9,0.32
		c0.28,0.04,0.57,0.09,0.85,0.13c0.91,0.11,1.83,0.21,2.75,0.26c0.04,0,0.07,0,0.11,0c0.88,0.05,1.77,0.06,2.66,0.06
		c0.29,0,0.59-0.02,0.88-0.03c0.64-0.02,1.29-0.05,1.93-0.1c0.32-0.03,0.65-0.05,0.97-0.09c0.65-0.07,1.29-0.15,1.94-0.25
		c0.29-0.04,0.58-0.08,0.86-0.13c0.92-0.16,1.84-0.34,2.75-0.56c2.3-4.09,3.56-8.66,3.69-13.31c0.06-1.99-0.09-3.99-0.45-5.97
		C396.28,64.26,394.71,60.4,392.25,56.89z"/>
	<path class="st0" d="M342.33,91.86c-0.18-0.25-0.36-0.52-0.54-0.8c-0.9,1.29-1.6,2.75-2.03,4.35c-2.03,7.53,2.42,15.27,9.95,17.31
		c6.58,1.78,13.33-1.4,16.28-7.26C356.43,104.64,347.85,99.73,342.33,91.86z"/>
	<path class="st0" d="M357.06,85.46c-0.56-0.15-1.12-0.26-1.68-0.34c-0.03,0-0.07-0.01-0.1-0.02c-0.54-0.07-1.07-0.11-1.61-0.12
		c-0.06,0-0.11,0-0.17-0.01c-0.52,0-1.04,0.02-1.55,0.08c-0.13,0.01-0.25,0.04-0.38,0.05c-0.39,0.05-0.78,0.12-1.16,0.2
		c-0.15,0.03-0.3,0.06-0.44,0.1c-0.43,0.11-0.85,0.23-1.27,0.38c-0.06,0.02-0.13,0.04-0.19,0.06c-0.47,0.17-0.93,0.38-1.38,0.6
		c-0.12,0.06-0.24,0.13-0.37,0.2c-0.34,0.18-0.67,0.37-0.99,0.58c-0.12,0.08-0.25,0.16-0.37,0.24c-0.42,0.29-0.82,0.59-1.21,0.91
		c0.31,0.5,0.63,1,0.97,1.49c0.33,0.47,0.67,0.93,1.02,1.37c1.41,1.78,2.99,3.34,4.7,4.7c0.86,0.68,1.75,1.3,2.66,1.87
		c1.38,0.85,2.82,1.58,4.3,2.18c2.97,1.21,6.12,1.91,9.31,2.08C368.75,94.77,364.35,87.43,357.06,85.46z"/>
</g>
</svg>
