<?xml version="1.0" encoding="utf-8"?>
<!-- Generator: Adobe Illustrator 27.0.0, SVG Export Plug-In . SVG Version: 6.00 Build 0)  -->
<svg version="1.1" id="Layer_1" xmlns="http://www.w3.org/2000/svg" xmlns:xlink="http://www.w3.org/1999/xlink" x="0px" y="0px"
	 viewBox="0 0 112 118" style="enable-background:new 0 0 112 118;" xml:space="preserve">
<style type="text/css">
	.st0{fill:#FFFFFF;}
</style>
<g>
	<path class="st0" d="M97.62,24.14c-13-18.55-38.56-23.05-57.11-10.06C27.45,23.23,21.36,38.62,23.44,53.4
		c1.93-2.44,4.2-4.59,6.79-6.41c5.45-3.82,11.83-5.83,18.46-5.83c10.51,0,20.39,5.13,26.41,13.73c6.41,9.15,7.54,21.05,3.19,31.21
		c3.22-1.19,6.35-2.8,9.29-4.86C106.11,68.25,110.61,42.68,97.62,24.14z"/>
	<path class="st0" d="M47.78,89.03c2.56,3.67,3.7,8.3,2.9,13c5.05-0.34,10.07-1.99,14.52-5.11c2.21-1.55,4.13-3.36,5.76-5.35
		c-2.28,0.36-4.59,0.56-6.9,0.56C58.41,92.13,52.9,91.04,47.78,89.03z"/>
	<path class="st0" d="M33.38,81.5c0.66,0,1.32,0.05,1.97,0.12c-2.9-2.45-5.51-5.27-7.74-8.44c-2.33-3.32-4.17-6.9-5.5-10.67
		c-2.93,7.19-2.9,15.43,0.44,22.75C25.65,82.84,29.46,81.5,33.38,81.5z"/>
	<path class="st0" d="M72.25,56.89c-0.32-0.46-0.66-0.9-1-1.34c-0.11-0.14-0.22-0.27-0.33-0.4c-0.24-0.3-0.49-0.59-0.74-0.87
		c-0.13-0.15-0.26-0.29-0.39-0.43c-0.25-0.27-0.5-0.53-0.76-0.79c-0.13-0.13-0.26-0.26-0.39-0.39c-0.31-0.3-0.63-0.59-0.95-0.87
		c-0.08-0.07-0.16-0.15-0.25-0.22c-0.41-0.35-0.82-0.68-1.24-1.01c-0.11-0.08-0.22-0.16-0.33-0.24c-0.32-0.24-0.64-0.47-0.97-0.69
		c-0.15-0.1-0.3-0.2-0.46-0.3c-0.3-0.2-0.6-0.39-0.91-0.57c-0.16-0.09-0.31-0.19-0.47-0.28c-0.33-0.19-0.67-0.37-1-0.55
		c-0.13-0.07-0.26-0.14-0.39-0.21c-0.47-0.24-0.94-0.46-1.42-0.67c-0.06-0.03-0.13-0.05-0.2-0.08c-0.42-0.18-0.83-0.35-1.26-0.5
		c-0.16-0.06-0.32-0.11-0.48-0.17c-0.34-0.12-0.67-0.23-1.01-0.34c-0.18-0.06-0.35-0.11-0.53-0.16c-0.34-0.1-0.69-0.19-1.04-0.28
		c-0.16-0.04-0.32-0.08-0.49-0.12c-0.45-0.11-0.91-0.2-1.37-0.28c-0.05-0.01-0.11-0.02-0.16-0.03c-0.51-0.09-1.03-0.17-1.54-0.23
		c-0.15-0.02-0.31-0.03-0.46-0.05c-0.37-0.04-0.73-0.07-1.1-0.1c-0.18-0.01-0.37-0.02-0.55-0.03c-0.35-0.02-0.7-0.03-1.05-0.03
		c-0.17,0-0.34,0-0.51,0c-0.62,0-1.24,0.03-1.87,0.07c-0.11,0.01-0.22,0.02-0.33,0.03c-0.55,0.05-1.1,0.11-1.65,0.18
		c-0.13,0.02-0.26,0.03-0.39,0.05c-0.62,0.1-1.23,0.21-1.85,0.35c-0.13,0.03-0.26,0.06-0.39,0.09c-0.54,0.13-1.08,0.27-1.62,0.44
		c-0.1,0.03-0.21,0.06-0.31,0.09c-0.61,0.19-1.21,0.4-1.8,0.64c-0.14,0.05-0.28,0.11-0.41,0.17c-0.55,0.22-1.1,0.46-1.64,0.72
		c-0.06,0.03-0.13,0.06-0.19,0.09c-0.59,0.29-1.16,0.6-1.73,0.93c-0.14,0.08-0.27,0.16-0.41,0.24c-0.58,0.35-1.15,0.71-1.71,1.1
		c-2.02,1.42-3.81,3.05-5.35,4.84c-0.92,1.08-1.76,2.21-2.5,3.39c1.2,4.58,3.21,9.02,6.09,13.12c0.57,0.81,1.17,1.59,1.79,2.35
		c0.19,0.24,0.4,0.47,0.59,0.7c0.44,0.52,0.89,1.03,1.35,1.52c0.23,0.25,0.47,0.49,0.7,0.73c0.47,0.48,0.95,0.94,1.44,1.39
		c0.22,0.2,0.44,0.41,0.66,0.61c0.71,0.63,1.44,1.23,2.18,1.8c0.02,0.02,0.04,0.03,0.06,0.04c0.73,0.55,1.48,1.08,2.24,1.58
		c0.25,0.17,0.51,0.32,0.76,0.48c0.55,0.34,1.1,0.67,1.66,0.99c0.29,0.16,0.58,0.32,0.87,0.48c0.57,0.3,1.14,0.59,1.72,0.86
		c0.27,0.13,0.53,0.26,0.8,0.38c0.84,0.37,1.69,0.73,2.55,1.05c0.04,0.01,0.07,0.02,0.11,0.04c0.83,0.3,1.67,0.57,2.52,0.82
		c0.28,0.08,0.57,0.15,0.86,0.23c0.62,0.17,1.23,0.32,1.86,0.46c0.32,0.07,0.64,0.14,0.95,0.2c0.63,0.12,1.27,0.23,1.9,0.32
		c0.28,0.04,0.57,0.09,0.85,0.13c0.91,0.11,1.83,0.21,2.75,0.26c0.04,0,0.07,0,0.11,0c0.88,0.05,1.77,0.06,2.66,0.06
		c0.29,0,0.59-0.02,0.88-0.03c0.64-0.02,1.29-0.05,1.93-0.1c0.32-0.03,0.65-0.05,0.97-0.09c0.65-0.07,1.29-0.15,1.94-0.25
		c0.29-0.04,0.58-0.08,0.86-0.13c0.92-0.16,1.84-0.34,2.75-0.56c2.3-4.09,3.56-8.66,3.69-13.31c0.06-1.99-0.09-3.99-0.45-5.97
		C76.28,64.26,74.71,60.4,72.25,56.89z"/>
	<path class="st0" d="M22.33,91.86c-0.18-0.25-0.36-0.52-0.54-0.8c-0.9,1.29-1.6,2.75-2.03,4.35c-2.03,7.53,2.42,15.27,9.95,17.31
		c6.58,1.78,13.33-1.4,16.28-7.26C36.43,104.64,27.85,99.73,22.33,91.86z"/>
	<path class="st0" d="M37.06,85.46c-0.56-0.15-1.12-0.26-1.68-0.34c-0.03,0-0.07-0.01-0.1-0.02c-0.54-0.07-1.07-0.11-1.61-0.12
		c-0.06,0-0.11,0-0.17-0.01c-0.52,0-1.04,0.02-1.55,0.08c-0.13,0.01-0.25,0.04-0.38,0.05c-0.39,0.05-0.78,0.12-1.16,0.2
		c-0.15,0.03-0.3,0.06-0.44,0.1c-0.43,0.11-0.85,0.23-1.27,0.38c-0.06,0.02-0.13,0.04-0.19,0.06c-0.47,0.17-0.93,0.38-1.38,0.6
		c-0.12,0.06-0.24,0.13-0.37,0.2c-0.34,0.18-0.67,0.37-0.99,0.58c-0.12,0.08-0.25,0.16-0.37,0.24c-0.42,0.29-0.82,0.59-1.21,0.91
		c0.31,0.5,0.63,1,0.97,1.49c0.33,0.47,0.67,0.93,1.02,1.37c1.41,1.78,2.99,3.34,4.7,4.7c0.86,0.68,1.75,1.3,2.66,1.87
		c1.38,0.85,2.82,1.58,4.3,2.18c2.97,1.21,6.12,1.91,9.31,2.08C48.75,94.77,44.35,87.43,37.06,85.46z"/>
</g>
</svg>
